<svg width="25" height="24" viewBox="0 0 25 24" fill="none" xmlns="http://www.w3.org/2000/svg">
<path d="M22.3055 10.0417H21.5V10.0002H12.5V14.0002H18.1515C17.327 16.3287 15.1115 18.0002 12.5 18.0002C9.1865 18.0002 6.5 15.3137 6.5 12.0002C6.5 8.68674 9.1865 6.00024 12.5 6.00024C14.0295 6.00024 15.421 6.57724 16.4805 7.51974L19.309 4.69124C17.523 3.02674 15.134 2.00024 12.5 2.00024C6.9775 2.00024 2.5 6.47774 2.5 12.0002C2.5 17.5227 6.9775 22.0002 12.5 22.0002C18.0225 22.0002 22.5 17.5227 22.5 12.0002C22.5 11.3297 22.431 10.6752 22.3055 10.0417Z" fill="#FFC107"/>
<path d="M3.653 7.34574L6.9385 9.75525C7.8275 7.55424 9.9805 6.00024 12.5 6.00024C14.0295 6.00024 15.421 6.57724 16.4805 7.51974L19.309 4.69124C17.523 3.02674 15.134 2.00024 12.5 2.00024C8.659 2.00024 5.328 4.16874 3.653 7.34574Z" fill="#FF3D00"/>
<path d="M12.5 22.0002C15.083 22.0002 17.43 21.0117 19.2045 19.4042L16.1095 16.7852C15.0718 17.5744 13.8037 18.0013 12.5 18.0002C9.899 18.0002 7.6905 16.3417 6.8585 14.0272L3.5975 16.5397C5.2525 19.7782 8.6135 22.0002 12.5 22.0002Z" fill="#4CAF50"/>
<path d="M22.3055 10.0417H21.5V10.0002H12.5V14.0002H18.1515C17.7571 15.1085 17.0467 16.0768 16.108 16.7857L16.1095 16.7852L19.2045 19.4042C18.9855 19.6032 22.5 17.0002 22.5 12.0002C22.5 11.3297 22.431 10.6752 22.3055 10.0417Z" fill="#1976D2"/>
</svg>
